<svg width="24" height="24" viewBox="0 0 24 24" fill="none" xmlns="http://www.w3.org/2000/svg">
<path d="M19.5 21.5H4.5V19H5.5V20.5H18.5V14H19.5V21.5ZM14.5 11.5H7.5V10.5H14.5V11.5ZM19.5 5H18.5V3.5H5.5V10H4.5V2.5H19.5V5ZM12.5 8.5H7.5V7.5H12.5V8.5Z" fill="white"/>
<path d="M16 18.0001H8V17.0001H16V18.0001ZM5.49414 12.0001C5.56099 11.9989 5.62746 12.0111 5.68945 12.0362C5.75148 12.0613 5.80816 12.0991 5.85547 12.1465C5.90263 12.1939 5.93983 12.2505 5.96484 12.3126C5.9899 12.3748 6.00216 12.4417 6.00098 12.5089C5.9998 12.5759 5.98514 12.6419 5.95801 12.7032C5.93078 12.7645 5.89172 12.8205 5.84277 12.8663L4.70117 14.0128H11.5V15.046L4.70117 15.0128L5.84277 16.1592C5.93064 16.254 5.97786 16.3794 5.97559 16.5089C5.9733 16.6384 5.92134 16.762 5.83008 16.8536C5.73881 16.9451 5.61535 16.9978 5.48633 17.0001C5.3576 17.0022 5.23295 16.9543 5.13867 16.8663L3.14551 14.8663C3.05228 14.7726 3.00007 14.6452 3 14.5128C3 14.3803 3.0523 14.253 3.14551 14.1592L5.13867 12.1592C5.18423 12.1102 5.23879 12.0703 5.2998 12.043C5.36091 12.0157 5.42725 12.0012 5.49414 12.0001ZM19.6182 7.00006C19.74 6.99781 19.8581 7.04569 19.9473 7.13385L21.8311 9.13385C21.9192 9.22756 21.9687 9.35492 21.9688 9.48737C21.9688 9.61981 21.9192 9.74714 21.8311 9.84088L19.9473 11.8409C19.9042 11.8899 19.8526 11.9298 19.7949 11.9571C19.7372 11.9844 19.6745 11.9989 19.6113 12.0001C19.5482 12.0012 19.4853 11.989 19.4268 11.9639C19.3681 11.9388 19.3142 11.9011 19.2695 11.8536C19.2249 11.8062 19.1897 11.7497 19.166 11.6876C19.1423 11.6253 19.1307 11.5584 19.1318 11.4913C19.1329 11.4243 19.1472 11.3582 19.1729 11.2969C19.1986 11.2356 19.236 11.1796 19.2822 11.1339L20.3613 9.98737H16.5V8.95416L20.3613 8.98737L19.2822 7.84088C19.1991 7.74612 19.1531 7.62077 19.1553 7.49127C19.1574 7.36186 19.2069 7.23813 19.293 7.14655C19.3792 7.05494 19.4962 7.00235 19.6182 7.00006Z" fill="white"/>
</svg>
