<svg width="20" height="20" viewBox="0 0 20 20" fill="none" xmlns="http://www.w3.org/2000/svg">
<path d="M10.4688 9.37501V13.75C10.4688 13.8743 10.4194 13.9936 10.3315 14.0815C10.2436 14.1694 10.1244 14.2188 10 14.2188C9.87573 14.2188 9.7565 14.1694 9.66859 14.0815C9.58068 13.9936 9.5313 13.8743 9.5313 13.75V9.37501C9.5313 9.25069 9.58068 9.13146 9.66859 9.04355C9.7565 8.95565 9.87573 8.90626 10 8.90626C10.1244 8.90626 10.2436 8.95565 10.3315 9.04355C10.4194 9.13146 10.4688 9.25069 10.4688 9.37501ZM18.5844 7.64454L17.5 15.7695C17.465 16.0322 17.3359 16.2732 17.1366 16.4477C16.9373 16.6223 16.6814 16.7186 16.4165 16.7188H3.58364C3.31869 16.7186 3.0628 16.6223 2.8635 16.4477C2.66421 16.2732 2.53506 16.0322 2.50005 15.7695L1.41645 7.64454C1.39586 7.49011 1.40851 7.33307 1.45353 7.18393C1.49855 7.03478 1.57492 6.89698 1.67751 6.77973C1.78011 6.66249 1.90657 6.56852 2.04842 6.50411C2.19028 6.4397 2.34425 6.40634 2.50005 6.40626H5.41255L9.64692 1.56642C9.69091 1.51654 9.74501 1.47659 9.80562 1.44923C9.86624 1.42187 9.93198 1.40771 9.99848 1.40771C10.065 1.40771 10.1307 1.42187 10.1913 1.44923C10.252 1.47659 10.3061 1.51654 10.35 1.56642L14.5844 6.41017H17.5C17.6558 6.41025 17.8098 6.44361 17.9517 6.50802C18.0935 6.57243 18.22 6.6664 18.3226 6.78364C18.4252 6.90088 18.5015 7.03869 18.5466 7.18783C18.5916 7.33698 18.6042 7.49402 18.5836 7.64845L18.5844 7.64454ZM6.65786 6.40626H13.3422L10 2.58673L6.65786 6.40626ZM17.6172 7.39688C17.6026 7.38022 17.5846 7.36686 17.5644 7.3577C17.5442 7.34854 17.5222 7.34379 17.5 7.34376H2.50005C2.47773 7.34368 2.45565 7.34838 2.4353 7.35754C2.41496 7.3667 2.39681 7.38012 2.38208 7.39688C2.36726 7.41354 2.35618 7.43317 2.34958 7.45446C2.34297 7.47575 2.341 7.49821 2.3438 7.52032L3.42661 15.6453C3.43174 15.683 3.45044 15.7175 3.47921 15.7424C3.50797 15.7673 3.54483 15.7808 3.58286 15.7805H16.4165C16.4545 15.7808 16.4913 15.7673 16.5201 15.7424C16.5489 15.7175 16.5676 15.683 16.5727 15.6453L17.6563 7.52032C17.6594 7.49814 17.6574 7.47555 17.6507 7.4542C17.6439 7.43285 17.6325 7.41327 17.6172 7.39688ZM14.1719 8.90626C14.1107 8.9001 14.0488 8.90607 13.9899 8.92382C13.9309 8.94157 13.8761 8.97076 13.8284 9.00972C13.7807 9.04868 13.7412 9.09664 13.7121 9.15087C13.683 9.2051 13.6648 9.26454 13.6586 9.32579L13.2211 13.7008C13.2143 13.7624 13.2198 13.8248 13.2373 13.8842C13.2547 13.9437 13.2838 13.9992 13.3228 14.0473C13.3618 14.0955 13.41 14.1355 13.4646 14.1649C13.5191 14.1943 13.579 14.2126 13.6407 14.2188H13.6883C13.8049 14.2193 13.9176 14.1764 14.0043 14.0984C14.0909 14.0204 14.1454 13.9129 14.1571 13.7969L14.5946 9.42188C14.601 9.36021 14.5952 9.29787 14.5774 9.23847C14.5596 9.17906 14.5302 9.12378 14.4909 9.07582C14.4516 9.02787 14.4032 8.98819 14.3484 8.95908C14.2937 8.92997 14.2337 8.91202 14.1719 8.90626ZM6.34145 9.32814C6.32902 9.20444 6.26796 9.09074 6.1717 9.01206C6.07544 8.93339 5.95187 8.89617 5.82817 8.9086C5.70447 8.92103 5.59078 8.9821 5.5121 9.07836C5.43342 9.17461 5.39621 9.29819 5.40864 9.42188L5.84614 13.7969C5.8578 13.9129 5.91229 14.0204 5.99896 14.0984C6.08564 14.1764 6.19828 14.2193 6.31489 14.2188H6.36255C6.4238 14.2126 6.48323 14.1944 6.53747 14.1653C6.5917 14.1362 6.63966 14.0967 6.67862 14.049C6.71758 14.0013 6.74676 13.9465 6.76451 13.8875C6.78227 13.8286 6.78823 13.7667 6.78208 13.7055L6.34145 9.32814Z" fill="white"/>
</svg>
