<svg width="24" height="24" viewBox="0 0 24 24" fill="none" xmlns="http://www.w3.org/2000/svg">
<path d="M10.75 7.62501C10.75 7.79077 10.6842 7.94974 10.5669 8.06695C10.4497 8.18416 10.2908 8.25001 10.125 8.25001H5.125C4.95924 8.25001 4.80027 8.18416 4.68306 8.06695C4.56585 7.94974 4.5 7.79077 4.5 7.62501C4.5 7.45925 4.56585 7.30028 4.68306 7.18307C4.80027 7.06586 4.95924 7.00001 5.125 7.00001H10.125C10.2908 7.00001 10.4497 7.06586 10.5669 7.18307C10.6842 7.30028 10.75 7.45925 10.75 7.62501ZM10.125 15.75H8.25V13.875C8.25 13.7093 8.18415 13.5503 8.06694 13.4331C7.94973 13.3159 7.79076 13.25 7.625 13.25C7.45924 13.25 7.30027 13.3159 7.18306 13.4331C7.06585 13.5503 7 13.7093 7 13.875V15.75H5.125C4.95924 15.75 4.80027 15.8159 4.68306 15.9331C4.56585 16.0503 4.5 16.2093 4.5 16.375C4.5 16.5408 4.56585 16.6997 4.68306 16.817C4.80027 16.9342 4.95924 17 5.125 17H7V18.875C7 19.0408 7.06585 19.1997 7.18306 19.317C7.30027 19.4342 7.45924 19.5 7.625 19.5C7.79076 19.5 7.94973 19.4342 8.06694 19.317C8.18415 19.1997 8.25 19.0408 8.25 18.875V17H10.125C10.2908 17 10.4497 16.9342 10.5669 16.817C10.6842 16.6997 10.75 16.5408 10.75 16.375C10.75 16.2093 10.6842 16.0503 10.5669 15.9331C10.4497 15.8159 10.2908 15.75 10.125 15.75ZM13.875 15.75H18.875C19.0408 15.75 19.1997 15.6842 19.3169 15.567C19.4342 15.4497 19.5 15.2908 19.5 15.125C19.5 14.9593 19.4342 14.8003 19.3169 14.6831C19.1997 14.5659 19.0408 14.5 18.875 14.5H13.875C13.7092 14.5 13.5503 14.5659 13.4331 14.6831C13.3158 14.8003 13.25 14.9593 13.25 15.125C13.25 15.2908 13.3158 15.4497 13.4331 15.567C13.5503 15.6842 13.7092 15.75 13.875 15.75ZM18.875 17H13.875C13.7092 17 13.5503 17.0659 13.4331 17.1831C13.3158 17.3003 13.25 17.4593 13.25 17.625C13.25 17.7908 13.3158 17.9497 13.4331 18.067C13.5503 18.1842 13.7092 18.25 13.875 18.25H18.875C19.0408 18.25 19.1997 18.1842 19.3169 18.067C19.4342 17.9497 19.5 17.7908 19.5 17.625C19.5 17.4593 19.4342 17.3003 19.3169 17.1831C19.1997 17.0659 19.0408 17 18.875 17ZM14.0578 9.9422C14.1159 10.0003 14.1848 10.0464 14.2607 10.0779C14.3365 10.1093 14.4179 10.1255 14.5 10.1255C14.5821 10.1255 14.6635 10.1093 14.7393 10.0779C14.8152 10.0464 14.8841 10.0003 14.9422 9.9422L16.375 8.50861L17.8078 9.9422C17.8659 10.0003 17.9348 10.0463 18.0107 10.0778C18.0866 10.1092 18.1679 10.1254 18.25 10.1254C18.3321 10.1254 18.4134 10.1092 18.4893 10.0778C18.5652 10.0463 18.6341 10.0003 18.6922 9.9422C18.7503 9.88413 18.7963 9.81519 18.8277 9.73932C18.8592 9.66345 18.8753 9.58213 18.8753 9.50001C18.8753 9.41789 18.8592 9.33657 18.8277 9.2607C18.7963 9.18483 18.7503 9.11589 18.6922 9.05782L17.2586 7.62501L18.6922 6.1922C18.8095 6.07492 18.8753 5.91586 18.8753 5.75001C18.8753 5.58416 18.8095 5.4251 18.6922 5.30782C18.5749 5.19055 18.4159 5.12466 18.25 5.12466C18.0841 5.12466 17.9251 5.19055 17.8078 5.30782L16.375 6.74142L14.9422 5.30782C14.8249 5.19055 14.6659 5.12466 14.5 5.12466C14.3341 5.12466 14.1751 5.19055 14.0578 5.30782C13.9405 5.4251 13.8747 5.58416 13.8747 5.75001C13.8747 5.91586 13.9405 6.07492 14.0578 6.1922L15.4914 7.62501L14.0578 9.05782C13.9997 9.11587 13.9536 9.1848 13.9221 9.26067C13.8907 9.33655 13.8745 9.41788 13.8745 9.50001C13.8745 9.58215 13.8907 9.66348 13.9221 9.73935C13.9536 9.81522 13.9997 9.88415 14.0578 9.9422Z" fill="white"/>
</svg>
