<svg width="24" height="24" viewBox="0 0 24 24" fill="none" xmlns="http://www.w3.org/2000/svg">
<path d="M18.25 5.125H5.75C5.41848 5.125 5.10054 5.2567 4.86612 5.49112C4.6317 5.72554 4.5 6.04348 4.5 6.375V10.75C4.5 14.8687 6.49375 17.3648 8.16641 18.7336C9.96797 20.207 11.7602 20.707 11.8383 20.7281C11.9457 20.7573 12.059 20.7573 12.1664 20.7281C12.2445 20.707 14.0344 20.207 15.8383 18.7336C17.5063 17.3648 19.5 14.8687 19.5 10.75V6.375C19.5 6.04348 19.3683 5.72554 19.1339 5.49112C18.8995 5.2567 18.5815 5.125 18.25 5.125ZM18.25 10.75C18.25 13.6461 17.1828 15.9969 15.0781 17.7359C14.1619 18.4904 13.12 19.0775 12 19.4703C10.8947 19.0843 9.86558 18.5077 8.95938 17.7664C6.82969 16.0242 5.75 13.6641 5.75 10.75V6.375H18.25V10.75ZM8.43281 13.0672C8.31554 12.9499 8.24965 12.7909 8.24965 12.625C8.24965 12.4591 8.31554 12.3001 8.43281 12.1828C8.55009 12.0655 8.70915 11.9997 8.875 11.9997C9.04085 11.9997 9.19991 12.0655 9.31719 12.1828L10.75 13.6164L14.6828 9.68281C14.7409 9.62474 14.8098 9.57868 14.8857 9.54725C14.9616 9.51583 15.0429 9.49965 15.125 9.49965C15.2071 9.49965 15.2884 9.51583 15.3643 9.54725C15.4402 9.57868 15.5091 9.62474 15.5672 9.68281C15.6253 9.74088 15.6713 9.80982 15.7027 9.88569C15.7342 9.96156 15.7503 10.0429 15.7503 10.125C15.7503 10.2071 15.7342 10.2884 15.7027 10.3643C15.6713 10.4402 15.6253 10.5091 15.5672 10.5672L11.1922 14.9422C11.1341 15.0003 11.0652 15.0464 10.9893 15.0778C10.9135 15.1093 10.8321 15.1255 10.75 15.1255C10.6679 15.1255 10.5865 15.1093 10.5107 15.0778C10.4348 15.0464 10.3659 15.0003 10.3078 14.9422L8.43281 13.0672Z" fill="white"/>
</svg>
