<svg width="20" height="20" viewBox="0 0 20 20" fill="none" xmlns="http://www.w3.org/2000/svg">
<path d="M17.5 19.5H2.5V17H3.5V18.5H16.5V12H17.5V19.5ZM12.5 9.5H5.5V8.5H12.5V9.5ZM17.5 3H16.5V1.5H3.5V8H2.5V0.5H17.5V3ZM10.5 6.5H5.5V5.5H10.5V6.5Z" fill="white"/>
<path d="M14 16.0001H6V15.0001H14V16.0001ZM3.49414 10.0001C3.56099 9.99889 3.62746 10.0111 3.68945 10.0362C3.75148 10.0613 3.80816 10.0991 3.85547 10.1465C3.90263 10.1939 3.93983 10.2505 3.96484 10.3126C3.9899 10.3748 4.00216 10.4417 4.00098 10.5089C3.9998 10.5759 3.98514 10.6419 3.95801 10.7032C3.93078 10.7645 3.89172 10.8205 3.84277 10.8663L2.70117 12.0128H9.5V13.046L2.70117 13.0128L3.84277 14.1592C3.93064 14.254 3.97786 14.3794 3.97559 14.5089C3.9733 14.6384 3.92134 14.762 3.83008 14.8536C3.73881 14.9451 3.61535 14.9978 3.48633 15.0001C3.3576 15.0022 3.23295 14.9543 3.13867 14.8663L1.14551 12.8663C1.05228 12.7726 1.00007 12.6452 1 12.5128C1 12.3803 1.0523 12.253 1.14551 12.1592L3.13867 10.1592C3.18423 10.1102 3.23879 10.0703 3.2998 10.043C3.36091 10.0157 3.42725 10.0012 3.49414 10.0001ZM17.6182 5.00006C17.74 4.99781 17.8581 5.04569 17.9473 5.13385L19.8311 7.13385C19.9192 7.22756 19.9687 7.35492 19.9688 7.48737C19.9688 7.61981 19.9192 7.74714 19.8311 7.84088L17.9473 9.84088C17.9042 9.88993 17.8526 9.92978 17.7949 9.95709C17.7372 9.9844 17.6745 9.99885 17.6113 10.0001C17.5482 10.0012 17.4853 9.98898 17.4268 9.96393C17.3681 9.93878 17.3142 9.90106 17.2695 9.85358C17.2249 9.80618 17.1897 9.74967 17.166 9.68756C17.1423 9.62533 17.1307 9.55837 17.1318 9.49127C17.1329 9.42426 17.1472 9.35818 17.1729 9.29694C17.1986 9.2356 17.236 9.17963 17.2822 9.13385L18.3613 7.98737H14.5V6.95416L18.3613 6.98737L17.2822 5.84088C17.1991 5.74612 17.1531 5.62077 17.1553 5.49127C17.1574 5.36186 17.2069 5.23813 17.293 5.14655C17.3792 5.05494 17.4962 5.00235 17.6182 5.00006Z" fill="white"/>
</svg>
