<svg width="20" height="20" viewBox="0 0 20 20" fill="none" xmlns="http://www.w3.org/2000/svg">
<g clip-path="url(#clip0_2482_58953)">
<path d="M0 0H20V20H0V0Z" fill="white" fill-opacity="0.01"/>
<path d="M15 4H11M6 7H2V11M6 7V11M6 7H10M2 11H6M2 11V15H6M6 11V15M6 11H10M10 7V11M10 7H14M6 15H10M6 15V19H10M10 11V15M10 11H14M10 15V19M10 15H14M10 19H14V15M14 7V11M14 7H18V11M14 11V15M14 11H18M14 15H18V11M2 1H18V19H2V1Z" stroke="white"/>
</g>
<defs>
<clipPath id="clip0_2482_58953">
<rect width="20" height="20" fill="white"/>
</clipPath>
</defs>
</svg>
