<svg width="20" height="20" viewBox="0 0 20 20" fill="none" xmlns="http://www.w3.org/2000/svg">
<path d="M17.1336 8.49061L10.8836 2.24061C10.6492 2.00637 10.3314 1.87479 10 1.87479C9.66863 1.87479 9.35081 2.00637 9.11641 2.24061L2.86641 8.49061C2.74978 8.60638 2.65732 8.74419 2.59442 8.89601C2.53151 9.04784 2.49942 9.21065 2.50001 9.37499V16.875C2.50001 17.0407 2.56586 17.1997 2.68307 17.3169C2.80028 17.4341 2.95925 17.5 3.12501 17.5H16.875C17.0408 17.5 17.1997 17.4341 17.317 17.3169C17.4342 17.1997 17.5 17.0407 17.5 16.875V9.37499C17.5006 9.21065 17.4685 9.04784 17.4056 8.89601C17.3427 8.74419 17.2502 8.60638 17.1336 8.49061ZM16.25 16.25H3.75001V9.37499L10 3.12499L16.25 9.37499V16.25Z" fill="white"/>
</svg>
