<svg width="24" height="24" viewBox="0 0 24 24" fill="none" xmlns="http://www.w3.org/2000/svg">
<path d="M4 12V4H12" stroke="white" stroke-width="1.25"/>
<path d="M17.1383 17.1383C17.6354 16.6412 18.0297 16.0511 18.2987 15.4016C18.5677 14.7522 18.7062 14.0561 18.7062 13.3531C18.7062 12.6501 18.5677 11.954 18.2987 11.3046C18.0297 10.6551 17.6354 10.065 17.1383 9.56789C16.6412 9.07081 16.0511 8.6765 15.4016 8.40748C14.7522 8.13846 14.0561 8 13.3531 8C12.6501 8 11.954 8.13846 11.3046 8.40748C10.6551 8.6765 10.065 9.07081 9.56789 9.56789C8.56399 10.5718 8 11.9334 8 13.3531C8 14.7728 8.56399 16.1344 9.56789 17.1383C10.5718 18.1422 11.9334 18.7062 13.3531 18.7062C14.7728 18.7062 16.1344 18.1422 17.1383 17.1383ZM17.1383 17.1383L21 21" stroke="white"/>
</svg>
