<svg width="20" height="20" viewBox="0 0 20 20" fill="none" xmlns="http://www.w3.org/2000/svg">
<g clip-path="url(#clip0_2482_58901)">
<path d="M0 0H20V20H0V0Z" fill="white" fill-opacity="0.01"/>
<path d="M10 11L6 19H14L10 11Z" stroke="white"/>
<path d="M3 3.25C2.27065 3.25 1.57118 3.53973 1.05546 4.05546C0.539731 4.57118 0.25 5.27065 0.25 6C0.25 6.72935 0.539731 7.42882 1.05546 7.94454C1.57118 8.46027 2.27065 8.75 3 8.75C3.72935 8.75 4.42882 8.46027 4.94454 7.94454C5.46027 7.42882 5.75 6.72935 5.75 6C5.75 5.27065 5.46027 4.57118 4.94454 4.05546C4.42882 3.53973 3.72935 3.25 3 3.25Z" fill="white"/>
<path d="M15.999 5C17.1036 5 17.999 4.10457 17.999 3C17.999 1.89543 17.1036 1 15.999 1C14.8945 1 13.999 1.89543 13.999 3C13.999 4.10457 14.8945 5 15.999 5Z" stroke="white" stroke-linejoin="round"/>
<path d="M1 11L19 7" stroke="white"/>
</g>
<defs>
<clipPath id="clip0_2482_58901">
<rect width="20" height="20" fill="white"/>
</clipPath>
</defs>
</svg>
