<svg width="20" height="20" viewBox="0 0 20 20" fill="none" xmlns="http://www.w3.org/2000/svg">
<path d="M17.9164 7.67267L4.17262 2.57814L4.16012 2.57423C3.93889 2.49806 3.70073 2.48551 3.47272 2.538C3.24472 2.59049 3.03602 2.70593 2.87038 2.87116C2.70473 3.0364 2.58879 3.24481 2.53573 3.47269C2.48268 3.70056 2.49465 3.93876 2.57027 4.16017C2.57122 4.16444 2.57253 4.16862 2.57418 4.17267L7.67262 17.9164C7.75635 18.1615 7.91518 18.3739 8.12653 18.5235C8.33788 18.6732 8.59101 18.7524 8.84996 18.75H8.8734C9.13747 18.748 9.3939 18.6612 9.60489 18.5024C9.81588 18.3436 9.97026 18.1212 10.0453 17.868L11.8859 11.8867L17.8671 10.0461C18.1185 9.96877 18.339 9.81414 18.4974 9.60423C18.6558 9.39431 18.7439 9.1398 18.7493 8.87689C18.7546 8.61399 18.6769 8.35609 18.5273 8.13989C18.3776 7.92369 18.1635 7.76019 17.9156 7.67267H17.9164ZM17.5 8.85157L11.5187 10.6922C11.324 10.7522 11.1469 10.8588 11.0029 11.0029C10.8588 11.147 10.7521 11.3241 10.6921 11.5188L8.85152 17.5L8.84683 17.4867L3.74996 3.75001L17.4859 8.84532L17.4984 8.85001L17.5 8.85157Z" fill="#F1F3F2"/>
</svg>
