<svg width="24" height="24" viewBox="0 0 24 24" fill="none" xmlns="http://www.w3.org/2000/svg">
<g clip-path="url(#clip0_2482_58952)">
<path d="M2 2H22V22H2V2Z" fill="white" fill-opacity="0.01"/>
<path d="M17 6H13M8 9H4V13M8 9V13M8 9H12M4 13H8M4 13V17H8M8 13V17M8 13H12M12 9V13M12 9H16M8 17H12M8 17V21H12M12 13V17M12 13H16M12 17V21M12 17H16M12 21H16V17M16 9V13M16 9H20V13M16 13V17M16 13H20M16 17H20V13M4 3H20V21H4V3Z" stroke="white"/>
</g>
<defs>
<clipPath id="clip0_2482_58952">
<rect width="20" height="20" fill="white" transform="translate(2 2)"/>
</clipPath>
</defs>
</svg>
