<svg width="24" height="24" viewBox="0 0 24 24" fill="none" xmlns="http://www.w3.org/2000/svg">
<path d="M12 8.25C11.2583 8.25 10.5333 8.46993 9.91664 8.88199C9.29995 9.29404 8.81931 9.87971 8.53548 10.5649C8.25165 11.2502 8.17739 12.0042 8.32208 12.7316C8.46678 13.459 8.82393 14.1272 9.34838 14.6516C9.87282 15.1761 10.541 15.5332 11.2684 15.6779C11.9959 15.8226 12.7499 15.7484 13.4351 15.4645C14.1203 15.1807 14.706 14.7001 15.118 14.0834C15.5301 13.4667 15.75 12.7417 15.75 12C15.749 11.0058 15.3536 10.0525 14.6505 9.34949C13.9475 8.64645 12.9943 8.25103 12 8.25ZM12 14.5C11.5056 14.5 11.0222 14.3534 10.6111 14.0787C10.2 13.804 9.87955 13.4135 9.69033 12.9567C9.50111 12.4999 9.4516 11.9972 9.54806 11.5123C9.64453 11.0273 9.88263 10.5819 10.2323 10.2322C10.5819 9.8826 11.0273 9.6445 11.5123 9.54803C11.9973 9.45157 12.4999 9.50108 12.9567 9.6903C13.4135 9.87952 13.804 10.1999 14.0787 10.6111C14.3534 11.0222 14.5 11.5055 14.5 12C14.5 12.663 14.2366 13.2989 13.7678 13.7678C13.299 14.2366 12.6631 14.5 12 14.5ZM20.5891 10.3758C20.5717 10.2878 20.5355 10.2045 20.4831 10.1317C20.4306 10.0589 20.3632 9.99829 20.2852 9.9539L17.9547 8.62578L17.9453 5.99921C17.9451 5.90876 17.9251 5.81944 17.887 5.73743C17.8488 5.65542 17.7933 5.58267 17.7242 5.52421C16.8789 4.80913 15.9054 4.26114 14.8555 3.90937C14.7728 3.88139 14.6852 3.87103 14.5983 3.87897C14.5113 3.88691 14.427 3.91297 14.3508 3.95546L12 5.26953L9.6469 3.95312C9.57061 3.91038 9.48621 3.88413 9.39914 3.87605C9.31207 3.86798 9.22428 3.87826 9.14143 3.90625C8.09233 4.26059 7.11994 4.81067 6.27581 5.52734C6.20688 5.58571 6.15142 5.65833 6.11325 5.7402C6.07508 5.82207 6.05511 5.91123 6.05471 6.00156L6.043 8.63046L3.71253 9.95859C3.63456 10.003 3.56706 10.0636 3.51462 10.1364C3.46218 10.2092 3.42603 10.2925 3.40862 10.3805C3.19534 11.4522 3.19534 12.5556 3.40862 13.6273C3.42603 13.7154 3.46218 13.7986 3.51462 13.8714C3.56706 13.9442 3.63456 14.0048 3.71253 14.0492L6.043 15.3773L6.05237 18.0039C6.05265 18.0944 6.07257 18.1837 6.11074 18.2657C6.14891 18.3477 6.20443 18.4204 6.27346 18.4789C7.11883 19.194 8.09234 19.742 9.14221 20.0937C9.22489 20.1217 9.31252 20.1321 9.39944 20.1241C9.48636 20.1162 9.57066 20.0902 9.6469 20.0477L12 18.7305L14.3532 20.0469C14.4463 20.0988 14.5512 20.1257 14.6578 20.125C14.7261 20.125 14.7939 20.1139 14.8586 20.0922C15.9076 19.7383 16.88 19.1888 17.7242 18.4727C17.7932 18.4143 17.8486 18.3417 17.8868 18.2598C17.925 18.1779 17.9449 18.0888 17.9453 17.9984L17.9571 15.3695L20.2875 14.0414C20.3655 13.997 20.433 13.9364 20.4854 13.8636C20.5379 13.7908 20.574 13.7075 20.5914 13.6195C20.8035 12.5486 20.8027 11.4464 20.5891 10.3758ZM19.4172 13.1031L17.1852 14.3727C17.0874 14.4283 17.0064 14.5092 16.9508 14.607C16.9055 14.6852 16.8578 14.768 16.8094 14.8461C16.7474 14.9446 16.7144 15.0586 16.7141 15.175L16.7024 17.6945C16.1024 18.1657 15.434 18.5424 14.7203 18.8117L12.4688 17.557C12.3753 17.5053 12.2701 17.4784 12.1633 17.4789H12.1485C12.0539 17.4789 11.9586 17.4789 11.8641 17.4789C11.7523 17.4761 11.6417 17.5031 11.5438 17.557L9.29065 18.8148C8.57543 18.5476 7.9052 18.1727 7.30315 17.7031L7.29456 15.1875C7.29417 15.0709 7.26116 14.9567 7.19925 14.8578C7.15081 14.7797 7.10315 14.7016 7.05862 14.6187C7.0034 14.5194 6.92244 14.4369 6.82425 14.3797L4.58987 13.107C4.47424 12.3756 4.47424 11.6306 4.58987 10.8992L6.818 9.62734C6.91579 9.57173 6.99676 9.49076 7.05237 9.39296C7.09768 9.31484 7.14534 9.23203 7.19378 9.1539C7.25578 9.05538 7.28881 8.9414 7.28909 8.825L7.30081 6.30546C7.90075 5.83433 8.56914 5.45759 9.28284 5.18828L11.5313 6.44296C11.6291 6.49721 11.7397 6.52419 11.8516 6.52109C11.9461 6.52109 12.0414 6.52109 12.136 6.52109C12.2478 6.52388 12.3583 6.49692 12.4563 6.44296L14.7094 5.18515C15.4246 5.4524 16.0949 5.82729 16.6969 6.29687L16.7055 8.8125C16.7059 8.92913 16.7389 9.04333 16.8008 9.14218C16.8492 9.22031 16.8969 9.29843 16.9414 9.38125C16.9966 9.48055 17.0776 9.56314 17.1758 9.62031L19.4102 10.893C19.5274 11.6249 19.5287 12.3708 19.4141 13.1031H19.4172Z" fill="white"/>
</svg>
