<svg width="20" height="20" viewBox="0 0 20 20" fill="none" xmlns="http://www.w3.org/2000/svg">
<path d="M15.3821 10.2297L11.3469 8.74531C11.3265 8.73755 11.308 8.72562 11.2926 8.71028C11.2771 8.69494 11.265 8.67654 11.2571 8.65625L9.77268 4.62031C9.69572 4.41167 9.55666 4.23164 9.37422 4.10447C9.19178 3.97731 8.97475 3.90914 8.75236 3.90914C8.52998 3.90914 8.31295 3.97731 8.13051 4.10447C7.94807 4.23164 7.80901 4.41167 7.73205 4.62031L6.24768 8.65547C6.23992 8.67583 6.22798 8.69434 6.21264 8.70981C6.19731 8.72528 6.1789 8.73737 6.15861 8.74531L2.12268 10.2297C1.91403 10.3066 1.734 10.4457 1.60684 10.6281C1.47967 10.8106 1.4115 11.0276 1.4115 11.25C1.4115 11.4724 1.47967 11.6894 1.60684 11.8719C1.734 12.0543 1.91403 12.1934 2.12268 12.2703L6.15783 13.7547C6.17819 13.7624 6.1967 13.7744 6.21217 13.7897C6.22764 13.8051 6.23974 13.8235 6.24768 13.8438L7.73205 17.8797C7.80901 18.0883 7.94807 18.2684 8.13051 18.3955C8.31295 18.5227 8.52998 18.5909 8.75236 18.5909C8.97475 18.5909 9.19178 18.5227 9.37422 18.3955C9.55666 18.2684 9.69572 18.0883 9.77268 17.8797L11.2571 13.8445C11.2648 13.8242 11.2767 13.8057 11.2921 13.7902C11.3074 13.7747 11.3258 13.7626 11.3461 13.7547L15.3821 12.2703C15.5907 12.1934 15.7707 12.0543 15.8979 11.8719C16.0251 11.6894 16.0932 11.4724 16.0932 11.25C16.0932 11.0276 16.0251 10.8106 15.8979 10.6281C15.7707 10.4457 15.5907 10.3066 15.3821 10.2297ZM15.0578 11.3906L11.0219 12.875C10.8742 12.9296 10.7401 13.0155 10.6288 13.1269C10.5176 13.2383 10.4318 13.3726 10.3774 13.5203L8.89299 17.5555C8.88233 17.5842 8.86315 17.6089 8.83801 17.6264C8.81287 17.6439 8.78298 17.6533 8.75236 17.6533C8.72174 17.6533 8.69186 17.6439 8.66672 17.6264C8.64158 17.6089 8.62239 17.5842 8.61174 17.5555L7.12736 13.5195C7.0726 13.3721 6.98667 13.2382 6.87544 13.1269C6.76421 13.0157 6.63029 12.9298 6.48283 12.875L2.44768 11.3906C2.41897 11.38 2.39421 11.3608 2.37673 11.3356C2.35925 11.3105 2.34987 11.2806 2.34987 11.25C2.34987 11.2194 2.35925 11.1895 2.37673 11.1644C2.39421 11.1392 2.41897 11.12 2.44768 11.1094L6.48361 9.625C6.63131 9.57042 6.76542 9.48447 6.87669 9.37307C6.98796 9.26166 7.07375 9.12745 7.12814 8.97969L8.61252 4.94453C8.62318 4.91583 8.64236 4.89107 8.6675 4.87358C8.69264 4.8561 8.72252 4.84673 8.75314 4.84673C8.78377 4.84673 8.81365 4.8561 8.83879 4.87358C8.86393 4.89107 8.88311 4.91583 8.89377 4.94453L10.3781 8.98047C10.4327 9.12817 10.5187 9.26227 10.6301 9.37354C10.7415 9.48481 10.8757 9.5706 11.0235 9.625L15.0586 11.1094C15.0873 11.12 15.1121 11.1392 15.1296 11.1644C15.147 11.1895 15.1564 11.2194 15.1564 11.25C15.1564 11.2806 15.147 11.3105 15.1296 11.3356C15.1121 11.3608 15.0873 11.38 15.0586 11.3906H15.0578ZM11.4063 3.125C11.4063 3.00068 11.4557 2.88145 11.5436 2.79354C11.6315 2.70564 11.7507 2.65625 11.875 2.65625H13.2813V1.25C13.2813 1.12568 13.3307 1.00645 13.4186 0.918544C13.5065 0.830636 13.6257 0.78125 13.75 0.78125C13.8743 0.78125 13.9936 0.830636 14.0815 0.918544C14.1694 1.00645 14.2188 1.12568 14.2188 1.25V2.65625H15.625C15.7493 2.65625 15.8686 2.70564 15.9565 2.79354C16.0444 2.88145 16.0938 3.00068 16.0938 3.125C16.0938 3.24932 16.0444 3.36855 15.9565 3.45646C15.8686 3.54436 15.7493 3.59375 15.625 3.59375H14.2188V5C14.2188 5.12432 14.1694 5.24355 14.0815 5.33146C13.9936 5.41936 13.8743 5.46875 13.75 5.46875C13.6257 5.46875 13.5065 5.41936 13.4186 5.33146C13.3307 5.24355 13.2813 5.12432 13.2813 5V3.59375H11.875C11.7507 3.59375 11.6315 3.54436 11.5436 3.45646C11.4557 3.36855 11.4063 3.24932 11.4063 3.125ZM19.2188 6.875C19.2188 6.99932 19.1694 7.11855 19.0815 7.20646C18.9936 7.29436 18.8743 7.34375 18.75 7.34375H17.9688V8.125C17.9688 8.24932 17.9194 8.36855 17.8315 8.45646C17.7436 8.54436 17.6243 8.59375 17.5 8.59375C17.3757 8.59375 17.2565 8.54436 17.1686 8.45646C17.0807 8.36855 17.0313 8.24932 17.0313 8.125V7.34375H16.25C16.1257 7.34375 16.0065 7.29436 15.9186 7.20646C15.8307 7.11855 15.7813 6.99932 15.7813 6.875C15.7813 6.75068 15.8307 6.63145 15.9186 6.54354C16.0065 6.45564 16.1257 6.40625 16.25 6.40625H17.0313V5.625C17.0313 5.50068 17.0807 5.38145 17.1686 5.29354C17.2565 5.20564 17.3757 5.15625 17.5 5.15625C17.6243 5.15625 17.7436 5.20564 17.8315 5.29354C17.9194 5.38145 17.9688 5.50068 17.9688 5.625V6.40625H18.75C18.8743 6.40625 18.9936 6.45564 19.0815 6.54354C19.1694 6.63145 19.2188 6.75068 19.2188 6.875Z" fill="white"/>
</svg>
