<svg width="20" height="20" viewBox="0 0 20 20" fill="none" xmlns="http://www.w3.org/2000/svg">
<path d="M2 10V2H10" stroke="white" stroke-width="1.25"/>
<path d="M15.1383 15.1383C15.6354 14.6412 16.0297 14.0511 16.2987 13.4016C16.5677 12.7522 16.7062 12.0561 16.7062 11.3531C16.7062 10.6501 16.5677 9.95403 16.2987 9.30456C16.0297 8.65509 15.6354 8.06497 15.1383 7.56789C14.6412 7.07081 14.0511 6.6765 13.4016 6.40748C12.7522 6.13846 12.0561 6 11.3531 6C10.6501 6 9.95403 6.13846 9.30456 6.40748C8.65509 6.6765 8.06497 7.07081 7.56789 7.56789C6.56399 8.57179 6 9.93337 6 11.3531C6 12.7728 6.56399 14.1344 7.56789 15.1383C8.57179 16.1422 9.93337 16.7062 11.3531 16.7062C12.7728 16.7062 14.1344 16.1422 15.1383 15.1383ZM15.1383 15.1383L19 19" stroke="white"/>
</svg>
