<svg width="20" height="20" viewBox="0 0 20 20" fill="none" xmlns="http://www.w3.org/2000/svg">
<path d="M17.3438 3.75V11.875C17.3438 12.1651 17.2285 12.4433 17.0234 12.6484C16.8183 12.8535 16.5401 12.9688 16.25 12.9688H7.38203L8.45625 14.0437C8.5023 14.0867 8.53924 14.1384 8.56486 14.1959C8.59048 14.2534 8.60426 14.3155 8.60537 14.3784C8.60648 14.4414 8.5949 14.5039 8.57133 14.5622C8.54775 14.6206 8.51266 14.6736 8.46815 14.7181C8.42364 14.7627 8.37062 14.7978 8.31225 14.8213C8.25388 14.8449 8.19136 14.8565 8.12842 14.8554C8.06548 14.8543 8.00341 14.8405 7.94591 14.8149C7.88841 14.7892 7.83666 14.7523 7.79375 14.7063L5.91875 12.8313C5.83097 12.7434 5.78166 12.6242 5.78166 12.5C5.78166 12.3758 5.83097 12.2566 5.91875 12.1687L7.79375 10.2937C7.88261 10.2109 8.00014 10.1659 8.12158 10.168C8.24301 10.1702 8.35888 10.2194 8.44476 10.3052C8.53065 10.3911 8.57984 10.507 8.58198 10.6284C8.58413 10.7499 8.53905 10.8674 8.45625 10.9563L7.38203 12.0312H16.25C16.2914 12.0312 16.3312 12.0148 16.3605 11.9855C16.3898 11.9562 16.4062 11.9164 16.4062 11.875V3.75C16.4062 3.70856 16.3898 3.66882 16.3605 3.63951C16.3312 3.61021 16.2914 3.59375 16.25 3.59375H7.5C7.45856 3.59375 7.41882 3.61021 7.38951 3.63951C7.36021 3.66882 7.34375 3.70856 7.34375 3.75V4.375C7.34375 4.49932 7.29436 4.61855 7.20646 4.70646C7.11855 4.79436 6.99932 4.84375 6.875 4.84375C6.75068 4.84375 6.63145 4.79436 6.54354 4.70646C6.45564 4.61855 6.40625 4.49932 6.40625 4.375V3.75C6.40625 3.45992 6.52148 3.18172 6.7266 2.9766C6.93172 2.77148 7.20992 2.65625 7.5 2.65625H16.25C16.5401 2.65625 16.8183 2.77148 17.0234 2.9766C17.2285 3.18172 17.3438 3.45992 17.3438 3.75ZM13.125 15.1562C13.0007 15.1562 12.8815 15.2056 12.7935 15.2935C12.7056 15.3815 12.6562 15.5007 12.6562 15.625V16.25C12.6562 16.2914 12.6398 16.3312 12.6105 16.3605C12.5812 16.3898 12.5414 16.4062 12.5 16.4062H3.75C3.70856 16.4062 3.66882 16.3898 3.63951 16.3605C3.61021 16.3312 3.59375 16.2914 3.59375 16.25V8.125C3.59375 8.08356 3.61021 8.04382 3.63951 8.01451C3.66882 7.98521 3.70856 7.96875 3.75 7.96875H12.618L11.5437 9.04375C11.4977 9.08666 11.4608 9.13841 11.4351 9.19591C11.4095 9.25341 11.3957 9.31548 11.3946 9.37842C11.3935 9.44136 11.4051 9.50388 11.4287 9.56225C11.4522 9.62062 11.4873 9.67364 11.5319 9.71815C11.5764 9.76266 11.6294 9.79775 11.6878 9.82133C11.7461 9.8449 11.8086 9.85648 11.8716 9.85537C11.9345 9.85426 11.9966 9.84048 12.0541 9.81486C12.1116 9.78924 12.1633 9.7523 12.2063 9.70625L14.0813 7.83125C14.169 7.74336 14.2183 7.62422 14.2183 7.5C14.2183 7.37578 14.169 7.25664 14.0813 7.16875L12.2063 5.29375C12.1174 5.21095 11.9999 5.16587 11.8784 5.16802C11.757 5.17016 11.6411 5.21935 11.5552 5.30524C11.4694 5.39112 11.4202 5.50699 11.418 5.62842C11.4159 5.74986 11.4609 5.86739 11.5437 5.95625L12.618 7.03125H3.75C3.45992 7.03125 3.18172 7.14648 2.9766 7.3516C2.77148 7.55672 2.65625 7.83492 2.65625 8.125V16.25C2.65625 16.5401 2.77148 16.8183 2.9766 17.0234C3.18172 17.2285 3.45992 17.3438 3.75 17.3438H12.5C12.7901 17.3438 13.0683 17.2285 13.2734 17.0234C13.4785 16.8183 13.5938 16.5401 13.5938 16.25V15.625C13.5938 15.5007 13.5444 15.3815 13.4565 15.2935C13.3685 15.2056 13.2493 15.1562 13.125 15.1562Z" fill="white"/>
</svg>
