<svg width="24" height="24" viewBox="0 0 24 24" fill="none" xmlns="http://www.w3.org/2000/svg">
<path d="M19.3438 5.75V13.875C19.3438 14.1651 19.2285 14.4433 19.0234 14.6484C18.8183 14.8535 18.5401 14.9688 18.25 14.9688H9.38203L10.4562 16.0437C10.5023 16.0867 10.5392 16.1384 10.5649 16.1959C10.5905 16.2534 10.6043 16.3155 10.6054 16.3784C10.6065 16.4414 10.5949 16.5039 10.5713 16.5622C10.5478 16.6206 10.5127 16.6736 10.4681 16.7181C10.4236 16.7627 10.3706 16.7978 10.3122 16.8213C10.2539 16.8449 10.1914 16.8565 10.1284 16.8554C10.0655 16.8543 10.0034 16.8405 9.94591 16.8149C9.88841 16.7892 9.83666 16.7523 9.79375 16.7063L7.91875 14.8313C7.83097 14.7434 7.78166 14.6242 7.78166 14.5C7.78166 14.3758 7.83097 14.2566 7.91875 14.1687L9.79375 12.2937C9.88261 12.2109 10.0001 12.1659 10.1216 12.168C10.243 12.1702 10.3589 12.2194 10.4448 12.3052C10.5306 12.3911 10.5798 12.507 10.582 12.6284C10.5841 12.7499 10.539 12.8674 10.4562 12.9563L9.38203 14.0312H18.25C18.2914 14.0312 18.3312 14.0148 18.3605 13.9855C18.3898 13.9562 18.4062 13.9164 18.4062 13.875V5.75C18.4062 5.70856 18.3898 5.66882 18.3605 5.63951C18.3312 5.61021 18.2914 5.59375 18.25 5.59375H9.5C9.45856 5.59375 9.41882 5.61021 9.38951 5.63951C9.36021 5.66882 9.34375 5.70856 9.34375 5.75V6.375C9.34375 6.49932 9.29436 6.61855 9.20646 6.70646C9.11855 6.79436 8.99932 6.84375 8.875 6.84375C8.75068 6.84375 8.63145 6.79436 8.54354 6.70646C8.45564 6.61855 8.40625 6.49932 8.40625 6.375V5.75C8.40625 5.45992 8.52148 5.18172 8.7266 4.9766C8.93172 4.77148 9.20992 4.65625 9.5 4.65625H18.25C18.5401 4.65625 18.8183 4.77148 19.0234 4.9766C19.2285 5.18172 19.3438 5.45992 19.3438 5.75ZM15.125 17.1562C15.0007 17.1562 14.8815 17.2056 14.7935 17.2935C14.7056 17.3815 14.6562 17.5007 14.6562 17.625V18.25C14.6562 18.2914 14.6398 18.3312 14.6105 18.3605C14.5812 18.3898 14.5414 18.4062 14.5 18.4062H5.75C5.70856 18.4062 5.66882 18.3898 5.63951 18.3605C5.61021 18.3312 5.59375 18.2914 5.59375 18.25V10.125C5.59375 10.0836 5.61021 10.0438 5.63951 10.0145C5.66882 9.98521 5.70856 9.96875 5.75 9.96875H14.618L13.5437 11.0438C13.4977 11.0867 13.4608 11.1384 13.4351 11.1959C13.4095 11.2534 13.3957 11.3155 13.3946 11.3784C13.3935 11.4414 13.4051 11.5039 13.4287 11.5622C13.4522 11.6206 13.4873 11.6736 13.5319 11.7181C13.5764 11.7627 13.6294 11.7978 13.6878 11.8213C13.7461 11.8449 13.8086 11.8565 13.8716 11.8554C13.9345 11.8543 13.9966 11.8405 14.0541 11.8149C14.1116 11.7892 14.1633 11.7523 14.2063 11.7062L16.0813 9.83125C16.169 9.74336 16.2183 9.62422 16.2183 9.5C16.2183 9.37578 16.169 9.25664 16.0813 9.16875L14.2063 7.29375C14.1174 7.21095 13.9999 7.16587 13.8784 7.16802C13.757 7.17016 13.6411 7.21935 13.5552 7.30524C13.4694 7.39112 13.4202 7.50699 13.418 7.62842C13.4159 7.74986 13.4609 7.86739 13.5437 7.95625L14.618 9.03125H5.75C5.45992 9.03125 5.18172 9.14648 4.9766 9.3516C4.77148 9.55672 4.65625 9.83492 4.65625 10.125V18.25C4.65625 18.5401 4.77148 18.8183 4.9766 19.0234C5.18172 19.2285 5.45992 19.3438 5.75 19.3438H14.5C14.7901 19.3438 15.0683 19.2285 15.2734 19.0234C15.4785 18.8183 15.5938 18.5401 15.5938 18.25V17.625C15.5938 17.5007 15.5444 17.3815 15.4565 17.2935C15.3685 17.2056 15.2493 17.1562 15.125 17.1562Z" fill="white"/>
</svg>
