<svg width="24" height="24" viewBox="0 0 24 24" fill="none" xmlns="http://www.w3.org/2000/svg">
<path d="M19.9164 9.67267L6.17262 4.57814L6.16012 4.57423C5.93889 4.49806 5.70073 4.48551 5.47272 4.538C5.24472 4.59049 5.03602 4.70593 4.87038 4.87116C4.70473 5.0364 4.58879 5.24481 4.53573 5.47269C4.48268 5.70056 4.49465 5.93876 4.57027 6.16017C4.57122 6.16444 4.57253 6.16862 4.57418 6.17267L9.67262 19.9164C9.75635 20.1615 9.91518 20.3739 10.1265 20.5235C10.3379 20.6732 10.591 20.7524 10.85 20.75H10.8734C11.1375 20.748 11.3939 20.6612 11.6049 20.5024C11.8159 20.3436 11.9703 20.1212 12.0453 19.868L13.8859 13.8867L19.8671 12.0461C20.1185 11.9688 20.339 11.8141 20.4974 11.6042C20.6558 11.3943 20.7439 11.1398 20.7493 10.8769C20.7546 10.614 20.6769 10.3561 20.5273 10.1399C20.3776 9.92369 20.1635 9.76019 19.9156 9.67267H19.9164ZM19.5 10.8516L13.5187 12.6922C13.324 12.7522 13.1469 12.8588 13.0029 13.0029C12.8588 13.147 12.7521 13.3241 12.6921 13.5188L10.8515 19.5L10.8468 19.4867L5.74996 5.75001L19.4859 10.8453L19.4984 10.85L19.5 10.8516Z" fill="#F1F3F2"/>
</svg>
